<?xml version="1.0" encoding="UTF-8"?>
<svg xmlns="http://www.w3.org/2000/svg" version="1.1" viewBox="0 0 1440 810">
  <defs>
    <style>
      .cls-1 {
        fill: none;
        stroke: #231f20;
        stroke-miterlimit: 10;
        stroke-width: 6px;
      }

      .cls-2 {
        fill: #231f20;
      }
    </style>
  </defs>
  <!-- Generator: Adobe Illustrator 28.7.5, SVG Export Plug-In . SVG Version: 1.2.0 Build 176)  -->
  <g>
    <g id="Layer_1">
      <g>
        <path class="cls-2" d="M395.19,580c0-20.27,14.86-35.13,35.94-35.13,17.97,0,31.21,10.81,34.59,26.35h-14.73c-3.11-7.7-10.27-12.84-19.86-12.84-12.7,0-21.21,9.05-21.21,21.62s8.51,21.62,21.21,21.62c9.59,0,16.75-5.13,19.86-12.84h14.73c-3.38,15.54-16.62,26.35-34.59,26.35-21.08,0-35.94-14.86-35.94-35.13Z"/>
        <path class="cls-2" d="M476.26,574.33c0-19.86,11.76-29.46,29.05-29.46s28.91,9.59,28.91,29.73v.54h-14.46v-.81c0-11.48-5.81-15.94-14.46-15.94s-14.46,4.46-14.46,15.94v39.05h-14.59v-39.05Z"/>
        <path class="cls-2" d="M540.31,580c0-20.27,14.86-35.13,35.94-35.13s35.67,14.86,35.67,35.13v5.27h-56.21c2.03,10.68,10.13,16.49,20.54,16.49,7.84,0,13.51-2.3,17.16-7.3h15.81c-5.13,12.56-17.29,20.67-32.97,20.67-21.08,0-35.94-14.86-35.94-35.13ZM596.52,572.98c-2.57-9.73-10.54-14.73-20.27-14.73s-17.56,5.14-20.13,14.73h40.4Z"/>
        <path class="cls-2" d="M619.76,579.46c0-22.56,16.75-34.59,33.51-34.59,10.13,0,18.78,4.46,23.51,12.43v-39.86h14.59v62.02c0,21.62-14.73,35.67-35.53,35.67s-36.08-14.59-36.08-35.67ZM676.78,580c0-12.56-8.51-21.62-21.08-21.62s-21.21,9.05-21.21,21.62,8.51,21.62,21.21,21.62,21.08-9.05,21.08-21.62Z"/>
        <path class="cls-2" d="M701.91,580c0-20.27,14.86-35.13,35.94-35.13s35.67,14.86,35.67,35.13v5.27h-56.21c2.03,10.68,10.13,16.49,20.54,16.49,7.84,0,13.51-2.3,17.16-7.3h15.81c-5.13,12.56-17.29,20.67-32.97,20.67-21.08,0-35.94-14.86-35.94-35.13ZM758.12,572.98c-2.57-9.73-10.54-14.73-20.27-14.73s-17.56,5.14-20.13,14.73h40.4Z"/>
        <path class="cls-2" d="M784.06,578.65c0-22.3,13.24-33.78,32.97-33.78s32.97,11.35,32.97,33.78v34.72h-14.59v-34.72c0-13.51-7.3-20.27-18.37-20.27s-18.38,6.76-18.38,20.27v34.72h-14.59v-34.72Z"/>
        <path class="cls-2" d="M860.54,580c0-20.27,14.86-35.13,35.94-35.13,17.97,0,31.21,10.81,34.59,26.35h-14.73c-3.11-7.7-10.27-12.84-19.86-12.84-12.7,0-21.21,9.05-21.21,21.62s8.51,21.62,21.21,21.62c9.59,0,16.75-5.13,19.86-12.84h14.73c-3.38,15.54-16.62,26.35-34.59,26.35-21.08,0-35.94-14.86-35.94-35.13Z"/>
        <path class="cls-2" d="M938.91,580c0-20.27,14.86-35.13,35.94-35.13s35.67,14.86,35.67,35.13v5.27h-56.21c2.03,10.68,10.13,16.49,20.54,16.49,7.84,0,13.51-2.3,17.16-7.3h15.81c-5.13,12.56-17.29,20.67-32.97,20.67-21.08,0-35.94-14.86-35.94-35.13ZM995.11,572.98c-2.57-9.73-10.54-14.73-20.27-14.73s-17.57,5.14-20.13,14.73h40.4Z"/>
      </g>
      <g>
        <g>
          <path class="cls-2" d="M686.1,324.28c0,29.84.06,59.69-.05,89.53-.02,5.52.35,11.06-1.38,16.54-3.58,11.28-14.66,20.25-26.48,19.66-4.51-.23-9.55-.68-13.76-2.58-7.98-3.6-8.18-3.99-11.67-10.78-.99-1.92-2.72-2.53-4.81-2.51-5.77.06-11.46-.41-16.88-2.68-12.95-5.4-22.34-19.59-22.03-33.62.06-2.77-.84-4.26-3.52-5.4-14.6-6.15-22.26-24.46-14.08-39.52.63-1.15,1.34-2.28,1.77-3.51.21-.59.09-1.55-.27-2.06-2.23-3.09-4.87-5.92-6.84-9.16-6.37-10.53-5.17-24.86,2.7-34.44,1.32-1.61,2.86-3.05,4.37-4.49,1.37-1.31,1.99-2.77,1.56-4.67-.56-2.45-1.14-4.9-1.55-7.37-1.45-8.71,2.72-20.2,10.2-25.55,1.89-1.35,4.07-2.41,5.66-4.05,1-1.03,1.76-2.96,1.59-4.37-.97-7.91.73-15.08,5.22-21.63,6.83-9.95,16.37-14.51,28.33-14.03,3.78.15,4.97-.24,6.47-3.66,6.1-13.85,18.81-19.11,32.53-16.5,11.19,2.13,18.99,9.02,21.59,20.43,1.15,5.05,1.36,10.4,1.38,15.62.12,30.26.06,60.52.06,90.79-.04,0-.08,0-.12,0ZM678.26,372.92h.03c0-1.5,0-2.99,0-4.49,0-15.43,0-30.86,0-46.29,0-3.44-1.27-4.98-4.21-4.98-19.27.03-38.53.04-57.8.19-1.89.01-3.92.59-5.64,1.41-4.67,2.21-7.78,5.77-8.94,10.98-.56,2.53-2.97,3.59-5.73,2.77-2.35-.7-2.36-2.8-1.7-4.42,1.45-3.55,2.84-7.29,5.12-10.3,4.4-5.78,10.77-8.13,17.95-8.15,18.85-.05,37.7-.04,56.54-.04,3.34,0,4.38-1.03,4.38-4.41,0-9.27-.01-18.54-.04-27.8,0-2.93-2.38-5.31-5.31-5.32-8.26-.04-16.52-.07-24.77-.08-10.93-.02-21.06-8.46-22.84-19.13-.14-.84.02-2.08.56-2.61,2.19-2.17,6.86-.73,7.65,2.23,2,7.46,7.15,11.62,14.88,11.71,8.44.1,16.87-.01,25.31-.02,3.7,0,4.56-.81,4.56-4.53,0-11,.02-22.01-.1-33.01-.05-4.39-.69-8.67-3.28-12.47-4.39-6.44-10.34-10.09-18.18-9.98-7.91.11-13.66,4.38-17.91,10.67-2.76,4.09-2.25,5.99,1.55,8.53,7.68,5.11,11.48,12.57,12.97,21.4.32,1.88.11,3.74-2.26,4.17-3.18.57-4.46-.27-5-3.06-1.05-5.43-3.53-9.95-7.52-13.94-8.85-8.85-23.52-7.88-31.02-1.63-11.55,9.62-12.65,26.19-1.53,36.06.53.47,1.07.98,1.47,1.56,1.3,1.87.61,3.48-.71,5.02-1.25,1.45-2.78,1.84-4.27.68-1.68-1.31-3.23-2.83-4.65-4.42-4.91-5.49-5.27-5.53-10.77-.43-9.05,8.4-8.56,23.27,1,31.08.69.57,1.42,1.14,1.94,1.85,1.45,1.98.47,3.68-.75,5.36-1.22,1.68-2.52,1.95-4.14.55-.9-.78-1.9-1.45-2.85-2.17-1.84-1.4-3.57-1.19-5.13.42-9.44,9.67-9.87,24.87.47,34.42,9.55,8.82,23.93,8.38,32.88-1.1,1.42-1.51,2.5-3.34,3.88-4.88,1.15-1.29,3.95-1.07,5.6.26,1.54,1.23,1.61,2.57.55,4.21-3.34,5.16-7.37,9.5-13.09,12.11-7.4,3.39-14.98,4.43-22.87,2.05-2.59-.78-4.54-.03-5.89,2.37-4.79,8.51-3.62,21.01,5.85,27.74,5.22,3.71,6.32,3.35,9.62-2.29,6.18-10.57,15.52-16.45,27.71-17.74.66-.07,1.62.25,2.02.74,2.11,2.59.35,7.3-2.91,7.32-9.73.06-22.06,12.31-23.61,22.2-2.23,14.17,6.3,28.41,19.35,31.87,7.94,2.1,15.58,1.65,22.59-2.84,2.67-1.71,4.94-4.08,7.33-6.22,1.78-1.6,3.28-1.59,5.33.28,1.4,1.28,2.45,2.88.72,4.44-3.4,3.07-6.85,6.13-10.57,8.76-3.02,2.14-3.57,3.62-.82,6.15.54.5,1.08.98,1.63,1.46,5.18,4.54,14.82,6.55,21.33,4.3.04-.01.08-.03.12-.04,8.9-3.13,13.89-10.67,13.89-20.09,0-16.15,0-32.3,0-48.44Z"/>
          <path class="cls-2" d="M668.72,349.26c0-9.59-7.98-19.55-17.22-21.5-4.27-.9-6.08.89-4.74,5.05.34,1.06,1.83,2.1,3.01,2.46,6.94,2.13,11.37,8.04,10.97,14.96-.35,6.1-4.76,11.37-11.42,13.18-2.91.79-3.2,2.96-2.68,5.67.52,2.68,2.64,2.23,4.43,1.88,9.66-1.89,17.65-11.76,17.65-21.7ZM638.52,391.73c.03-3.69-.9-4.64-4.11-3.93-2.18.48-4.37,1.28-6.35,2.32-6.51,3.44-10.48,8.88-12,16.08-.56,2.65.43,3.87,3.1,3.99,2.75.12,3.98-.8,4.81-3.51,1.77-5.81,5.39-9.8,11.47-11.11,2.49-.54,3.14-2.06,3.08-3.85ZM638.51,290.07c.04-2.97-.71-3.73-3.54-4.42-1.58-.38-3.22-1.01-4.54-1.94-3.31-2.32-5.75-5.29-6.53-9.48-.49-2.63-3.08-3.67-6.18-2.82-1.89.52-2.29,2-1.51,4.75,2.52,8.92,8.38,14.51,17.09,17.33,3.5,1.14,5.18.06,5.22-3.42ZM657.81,286.33v.08c-2.45,0-4.9-.03-7.34,0-2,.03-2.51,1.52-2.49,3.07.02,1.75-.43,4.38,2,4.54,5.17.35,10.38.25,15.56,0,2.39-.12,3.03-1.6,2.77-4.69-.18-2.16-1.54-2.98-3.51-3.01-2.33-.03-4.66,0-6.99,0ZM657.71,395.08s0,0,0,.01c2.39,0,4.79.07,7.17-.02,2.51-.09,3.43-1.11,3.46-3.58.04-2.9-.85-4.04-3.91-4.16-4.66-.18-9.32-.17-13.98-.02-.76.02-1.82,1.06-2.15,1.87-.4.99-.27,2.24-.19,3.36.12,1.64.94,2.62,2.78,2.56,2.27-.07,4.54-.02,6.82-.02Z"/>
          <path class="cls-2" d="M668.72,349.26c0,9.93-7.98,19.81-17.65,21.7-1.79.35-3.91.8-4.43-1.88-.52-2.7-.24-4.87,2.68-5.67,6.66-1.81,11.07-7.08,11.42-13.18.4-6.92-4.03-12.83-10.97-14.96-1.18-.36-2.67-1.41-3.01-2.46-1.34-4.16.47-5.95,4.74-5.05,9.25,1.96,17.22,11.91,17.22,21.5Z"/>
          <path class="cls-2" d="M638.52,391.73c.06,1.79-.59,3.31-3.08,3.85-6.08,1.31-9.69,5.3-11.47,11.11-.83,2.71-2.06,3.63-4.81,3.51-2.67-.12-3.66-1.34-3.1-3.99,1.52-7.2,5.49-12.64,12-16.08,1.98-1.05,4.16-1.85,6.35-2.32,3.2-.7,4.13.24,4.11,3.93Z"/>
          <path class="cls-2" d="M638.51,290.07c-.04,3.48-1.72,4.56-5.22,3.42-8.7-2.82-14.56-8.41-17.09-17.33-.78-2.75-.38-4.22,1.51-4.75,3.1-.86,5.69.19,6.18,2.82.78,4.19,3.23,7.16,6.53,9.48,1.32.93,2.96,1.56,4.54,1.94,2.83.69,3.58,1.45,3.54,4.42Z"/>
          <path class="cls-2" d="M657.81,286.33c2.33,0,4.66-.03,6.99,0,1.98.03,3.33.84,3.51,3.01.26,3.09-.38,4.58-2.77,4.69-5.18.25-10.39.34-15.56,0-2.44-.16-1.99-2.79-2-4.54-.02-1.55.49-3.04,2.49-3.07,2.45-.04,4.9,0,7.34,0v-.08Z"/>
          <path class="cls-2" d="M657.71,395.08c-2.27,0-4.55-.06-6.82.02-1.84.06-2.65-.92-2.78-2.56-.08-1.12-.21-2.37.19-3.36.33-.81,1.39-1.84,2.15-1.87,4.66-.15,9.33-.16,13.98.02,3.05.12,3.95,1.26,3.91,4.16-.03,2.48-.95,3.49-3.46,3.58-2.39.08-4.78.02-7.17.02,0,0,0,0,0-.01Z"/>
        </g>
        <g>
          <rect class="cls-1" x="691.78" y="367.77" width="18.4" height="18.4" rx="5.12" ry="5.12"/>
          <rect class="cls-1" x="710.25" y="425.98" width="18.4" height="18.4" rx="5.12" ry="5.12"/>
          <rect class="cls-1" x="730.38" y="405.72" width="18.4" height="18.4" rx="5.12" ry="5.12"/>
          <rect class="cls-1" x="692.23" y="339.33" width="18.4" height="18.4" rx="5.12" ry="5.12"/>
          <rect class="cls-1" x="691.85" y="310.96" width="18.4" height="18.4" rx="5.12" ry="5.12"/>
          <rect class="cls-1" x="758.56" y="351.98" width="18.4" height="18.4" rx="5.12" ry="5.12"/>
          <rect class="cls-1" x="753.77" y="382.59" width="18.4" height="18.4" rx="5.12" ry="5.12"/>
          <rect class="cls-1" x="787.51" y="304.12" width="18.4" height="18.4" rx="5.12" ry="5.12"/>
          <rect class="cls-1" x="747.82" y="327.83" width="18.4" height="18.4" rx="5.12" ry="5.12"/>
          <rect class="cls-1" x="727.89" y="312.11" width="18.4" height="18.4" rx="5.12" ry="5.12"/>
          <rect class="cls-1" x="781.76" y="274.21" width="18.4" height="18.4" rx="5.12" ry="5.12"/>
          <rect class="cls-1" x="765.84" y="245.01" width="18.4" height="18.4" rx="5.12" ry="5.12"/>
          <rect class="cls-1" x="753.96" y="219.32" width="18.4" height="18.4" rx="5.12" ry="5.12"/>
          <rect class="cls-1" x="706.42" y="202.45" width="18.4" height="18.4" rx="5.12" ry="5.12"/>
          <rect class="cls-1" x="705.65" y="241.56" width="18.4" height="18.4" rx="5.12" ry="5.12"/>
          <rect class="cls-1" x="706.8" y="287.95" width="18.4" height="18.4" rx="5.12" ry="5.12"/>
          <line class="cls-1" x1="699.32" y1="357.54" x2="699.32" y2="368.28"/>
          <g>
            <path class="cls-2" d="M703.76,215.77c-4.6,5.02-11.77,10.67-14.04,17.27s-.65,14.91-.46,21.54-.91,15.31,1.98,21.39c2.95,6.21,8.67,11.69,12.9,17.05,2.98,3.79,8.26-1.55,5.3-5.3-3.54-4.5-7.87-8.9-10.81-13.81s-1.71-13.75-1.87-19.33-1.46-12.45-.27-18.02c.76-3.56,4.26-6.42,6.62-8.99,1.98-2.16,3.97-4.33,5.95-6.49,3.26-3.55-2.03-8.87-5.3-5.3h0Z"/>
            <path class="cls-2" d="M710.53,264.28c.12,6.74.24,13.48.36,20.22.09,4.82,7.59,4.84,7.5,0-.12-6.74-.24-13.48-.36-20.22-.09-4.82-7.59-4.84-7.5,0h0Z"/>
            <path class="cls-2" d="M726.63,253.94c6.33,0,12.49.95,17.46-3.73,4.24-4,8.26-8.26,12.39-12.39,3.42-3.42-1.88-8.72-5.3-5.3-3.73,3.73-7.45,7.45-11.18,11.18s-8.38,2.74-13.37,2.74-4.83,7.5,0,7.5h0Z"/>
            <path class="cls-2" d="M763.19,258.33c-7.61,7.61-15.21,15.21-22.82,22.82-4.03,4.03-7.39,7.7-7.68,13.82-.22,4.71,0,9.49,0,14.21s7.5,4.83,7.5,0-.26-9.28,0-13.88,3.98-7.36,7.05-10.43c7.08-7.08,14.16-14.16,21.24-21.24,3.42-3.42-1.88-8.72-5.3-5.3h0Z"/>
            <path class="cls-2" d="M767.28,240.38l4.15,4.45c1.34,1.44,3.97,1.46,5.3,0,1.41-1.54,1.43-3.77,0-5.3s-2.77-2.96-4.15-4.45-3.97-1.46-5.3,0c-1.41,1.54-1.43,3.77,0,5.3h0Z"/>
            <path class="cls-2" d="M726.23,316.76c-4.72-.13-9.44-.27-14.16-.4s-4.82,7.36,0,7.5,9.44.27,14.16.4,4.82-7.36,0-7.5h0Z"/>
            <path class="cls-2" d="M706.98,330.97c7.64,7.18,15.29,14.35,22.93,21.53,3.01,2.83,6.07,6.35,9.76,8.32,5.55,2.96,12.24,2.13,18.32,2.13,4.83,0,4.83-7.5,0-7.5-5.59,0-12.28,1.13-16.86-2.7-2.71-2.27-5.2-4.89-7.78-7.31-7.02-6.59-14.04-13.18-21.06-19.77-3.52-3.3-8.83,1.99-5.3,5.3h0Z"/>
            <path class="cls-2" d="M759.82,327.25c0-7.84-.88-16.18,0-23.97.49-4.32,6.33-8.08,9.24-10.86,1.31-1.25,2.58-2.84,4.06-3.88,2.27-1.58,4.73-1.26,7.31-1.26,4.83,0,4.83-7.5,0-7.5-2.93,0-5.93-.23-8.71.9-2.43.98-4.2,2.83-6.05,4.6-3.72,3.55-8.8,7.12-11.51,11.56s-1.85,10.44-1.85,15.43v14.97c0,4.83,7.5,4.83,7.5,0h0Z"/>
            <path class="cls-2" d="M788.12,296.38c1.12,2.16,2.25,4.31,3.37,6.47.94,1.8,3.44,2.33,5.13,1.35,1.82-1.07,2.28-3.33,1.35-5.13-1.12-2.16-2.25-4.31-3.37-6.47-.94-1.8-3.44-2.33-5.13-1.35-1.82,1.07-2.28,3.33-1.35,5.13h0Z"/>
            <path class="cls-2" d="M792.19,324.96c0,13.05,0,26.1,0,39.15,0,1.44.15,2.97,0,4.4-.42,3.97-2.85,5.43-5.7,7.58-5.26,3.96-10.52,7.91-15.79,11.87-3.81,2.87-.08,9.38,3.79,6.48,5.64-4.24,11.29-8.49,16.93-12.73s8.27-8.49,8.27-15.4c0-13.78,0-27.57,0-41.35,0-4.83-7.5-4.83-7.5,0h0Z"/>
            <path class="cls-2" d="M741.8,404.7c0-5.15.13-10.32,0-15.47-.15-5.63-2.77-9.28-6.41-13.14-7.37-7.81-14.73-15.63-22.1-23.44-3.32-3.52-8.61,1.79-5.3,5.3,6.9,7.32,13.79,14.63,20.69,21.95,2.97,3.15,5.48,5.39,5.62,10.08.15,4.9,0,9.82,0,14.72s7.5,4.83,7.5,0h0Z"/>
            <path class="cls-2" d="M751.54,397.49c-1.96,2.17-3.92,4.35-5.88,6.52-1.36,1.5-1.48,3.82,0,5.3,1.38,1.38,3.94,1.51,5.3,0,1.96-2.17,3.92-4.35,5.88-6.52,1.36-1.5,1.48-3.82,0-5.3-1.38-1.38-3.94-1.51-5.3,0h0Z"/>
            <path class="cls-2" d="M697.13,386.71c-.03,4.27-.07,8.25,2.74,11.8,2.14,2.72,4.9,5.05,7.34,7.49s6.11,5.03,7.01,8.32c.84,3.07.52,6.83.71,10,.3,4.79,7.8,4.83,7.5,0-.19-3.06-.32-6.12-.57-9.17-.39-4.62-2.39-7.5-5.52-10.62-2.95-2.95-6.03-5.81-8.86-8.86-2.68-2.88-2.87-5.12-2.85-8.96.03-4.83-7.47-4.83-7.5,0h0Z"/>
          </g>
        </g>
      </g>
    </g>
  </g>
</svg>